# xmcd CD database file
#
# Track frame offsets:
#	150
#	20455
#	38875
#
# Disc length: 788 seconds
#
# Revision: 0
# Processed by: cddbd v1.5PL3 Copyright (c) Steve Scherf et al.
# Submitted via: CDex 1.51
#
DISCID=1b031203
DTITLE=松本梨香 - Spicy Life
DYEAR=1996
DGENRE=Anime
TTITLE0=Spicy Life
TTITLE1=ひとりでいるより自由な場所
TTITLE2=Spicy Life (カラオケ)
EXTD=YEAR: 1996
EXTT0=
EXTT1=
EXTT2=
PLAYORDER=
